<svg version="1.1" xmlns="http://www.w3.org/2000/svg" xmlns:xlink="http://www.w3.org/1999/xlink" width="26.95199" height="7.80577" viewBox="0,0,26.95199,7.80577"><g transform="translate(-229.54804,-157.25003)"><g data-paper-data="{&quot;isPaintingLayer&quot;:true}" fill="#000000" fill-rule="nonzero" stroke="none" stroke-width="0.5" stroke-linecap="butt" stroke-linejoin="miter" stroke-miterlimit="10" stroke-dasharray="" stroke-dashoffset="0" font-family="none" font-weight="none" font-size="none" text-anchor="none" style="mix-blend-mode: normal"><path d="M256.49995,158.2399c0.00281,0.27823 -0.07258,0.47983 -0.18287,0.6259c-0.72443,4.50401 -8.06439,5.4654 -11.80066,5.99915c-4.19757,0.54536 -13.37984,0.19948 -14.63711,-4.79731l-0.25137,-0.01934l0.05145,-0.66881l-0.13135,-0.02774l0.21959,-1.03968c0.01604,-0.08438 0.04269,-0.165 0.0785,-0.24043c0.11805,-0.27647 0.38204,-0.60903 0.96632,-0.56973c0.01176,0.00072 0.02347,0.00165 0.03512,0.00278c0.57791,0.0527 0.78675,0.41947 0.861,0.70952c0.02696,0.09055 0.04143,0.18647 0.04143,0.28578c0,0.02902 -0.00124,0.05775 -0.00366,0.08614c-0.3363,4.54176 9.07502,4.85067 12.48724,4.29891c2.81674,-0.40239 10.14142,-1.23121 10.14142,-4.76005l1.1149,-0.87495c0,0 0.99995,-0.0101 1.01005,0.98985z" data-paper-data="{&quot;origPos&quot;:null}"/></g></g></svg>